<?xml version="1.0" standalone="no"?>
<!DOCTYPE svg PUBLIC "-//W3C//DTD SVG 20010904//EN"
 "http://www.w3.org/TR/2001/REC-SVG-20010904/DTD/svg10.dtd">
<svg version="1.0" xmlns="http://www.w3.org/2000/svg"
 width="849.000000pt" height="904.000000pt" viewBox="0 0 849.000000 904.000000"
 preserveAspectRatio="xMidYMid meet">
<metadata>
Created by potrace 1.15, written by Peter Selinger 2001-2017
</metadata>
<g transform="translate(0.000000,904.000000) scale(0.100000,-0.100000)"
fill="#000000" stroke="none">
<path d="M5015 8969 c-28 -8 -101 -25 -400 -96 -60 -14 -127 -30 -147 -35 -23
-5 -38 -15 -38 -23 0 -12 -15 -15 -64 -15 -72 0 -96 -6 -96 -25 0 -17 -32 -25
-102 -25 -43 0 -58 -4 -58 -14 0 -17 -44 -26 -127 -26 -56 0 -66 -3 -70 -20
-4 -17 -14 -20 -54 -20 -27 0 -49 -4 -49 -10 0 -6 -26 -10 -58 -10 -53 0 -113
-12 -289 -56 -40 -10 -63 -21 -63 -30 0 -11 -17 -14 -69 -14 -78 0 -101 -6
-101 -26 0 -10 -15 -14 -57 -14 -75 0 -203 -29 -203 -47 0 -9 -18 -13 -65 -13
-59 0 -65 -2 -65 -21 0 -19 -5 -21 -62 -18 -76 3 -128 -8 -128 -27 0 -11 -16
-14 -67 -14 -72 0 -133 -17 -133 -36 0 -8 -24 -15 -68 -18 -133 -12 -204 -28
-210 -48 -4 -15 -15 -18 -73 -18 -55 0 -69 -3 -69 -15 0 -12 -14 -15 -64 -15
-73 0 -96 -6 -96 -26 0 -10 -12 -14 -40 -14 -22 0 -40 -4 -40 -10 0 -6 -26
-10 -57 -10 -85 0 -255 -40 -260 -61 -5 -17 -59 -29 -136 -29 -61 0 -297 -61
-297 -77 0 -9 -18 -13 -65 -13 -47 0 -65 -4 -65 -13 0 -17 -126 -47 -194 -47
-27 0 -114 -16 -195 -35 -80 -20 -188 -46 -238 -58 -70 -17 -93 -26 -93 -38 0
-18 20 -29 51 -29 10 0 19 -7 19 -15 0 -19 158 -125 187 -125 13 0 23 -4 23
-10 0 -5 9 -10 20 -10 11 0 20 -7 20 -15 0 -8 9 -15 20 -15 13 0 20 -7 20 -19
0 -20 18 -31 51 -31 11 0 19 -7 19 -17 0 -21 78 -73 109 -73 11 0 21 -6 21
-14 0 -26 80 -77 143 -90 18 -5 27 -13 27 -26 0 -15 7 -20 25 -20 14 0 25 -4
25 -10 0 -5 7 -10 15 -10 8 0 15 -7 15 -15 0 -9 9 -15 23 -15 29 0 44 -11 48
-35 3 -11 13 -21 24 -23 55 -8 65 -13 65 -32 0 -15 7 -20 25 -20 17 0 25 -5
25 -18 0 -22 49 -52 84 -52 16 0 26 -6 26 -15 0 -8 9 -15 20 -15 13 0 20 -7
20 -19 0 -19 18 -31 48 -31 10 0 22 -10 27 -22 7 -16 20 -24 42 -26 24 -2 33
-9 35 -25 2 -17 11 -23 37 -25 36 -4 61 -22 61 -44 1 -19 125 -98 155 -98 18
0 25 -5 25 -18 0 -24 190 -152 225 -152 14 0 25 -4 25 -10 0 -5 7 -10 14 -10
8 0 21 -12 28 -27 7 -15 42 -48 78 -72 62 -44 67 -46 127 -42 l62 3 3 -49 c3
-46 4 -48 36 -51 22 -2 32 -8 32 -20 0 -23 89 -82 123 -82 20 0 27 -5 27 -19
0 -23 145 -121 179 -121 24 0 51 -21 51 -39 0 -6 11 -11 25 -11 18 0 25 -5 25
-20 0 -22 74 -70 108 -70 15 0 22 -6 22 -20 0 -16 7 -20 30 -20 22 0 30 -5 30
-18 0 -10 8 -25 18 -33 22 -18 112 -34 112 -19 0 6 14 10 30 10 17 0 30 5 30
10 0 6 20 10 45 10 25 0 45 4 45 9 0 5 25 13 55 16 30 4 55 11 55 16 0 5 20 9
44 9 26 0 46 5 48 12 3 8 33 14 88 16 71 4 83 7 87 23 5 16 15 19 67 19 75 0
136 16 136 35 0 12 14 15 59 15 67 0 91 6 91 25 0 19 24 25 93 25 79 0 107 8
107 30 0 18 41 30 102 30 14 0 28 5 30 11 2 6 41 13 91 16 48 3 90 10 93 14 3
5 30 9 60 9 l54 0 0 -170 0 -170 -55 0 -55 0 0 95 c0 52 -3 95 -6 95 -8 0
-612 -158 -649 -169 -16 -6 -118 -33 -225 -60 -107 -28 -238 -62 -290 -76 -52
-14 -126 -33 -163 -42 l-69 -16 7 -246 c3 -135 10 -394 16 -576 5 -181 12
-458 15 -615 3 -157 7 -290 9 -296 4 -12 10 -11 215 46 63 18 142 39 175 47
33 8 63 17 67 21 3 4 2 153 -2 332 -5 179 -11 454 -15 612 l-7 287 28 7 c40 9
291 78 399 109 178 52 395 113 453 127 41 11 42 12 42 55 l0 43 55 0 55 0 0
-719 0 -720 -57 -16 c-32 -10 -89 -25 -128 -35 -38 -10 -106 -28 -150 -40 -44
-13 -118 -33 -165 -46 -47 -12 -161 -43 -255 -69 -93 -26 -210 -58 -260 -71
-119 -32 -206 -55 -345 -94 -110 -30 -166 -45 -330 -89 -41 -11 -127 -34 -190
-51 -63 -17 -146 -40 -185 -50 -93 -24 -344 -92 -535 -145 -259 -72 -481 -133
-560 -154 -222 -58 -411 -110 -420 -116 -5 -3 -10 -43 -10 -89 l0 -83 163 44
c89 24 212 57 272 73 61 15 162 42 225 60 63 17 194 51 290 76 96 24 183 49
192 54 10 6 23 10 30 10 7 0 54 11 103 24 80 22 706 192 875 237 36 10 135 36
220 59 85 22 166 45 180 50 14 5 88 25 165 46 77 20 196 52 265 71 69 20 157
43 195 54 82 21 165 44 325 89 63 18 147 41 185 51 39 10 84 22 100 27 l30 8
3 1993 2 1994 -27 -7 c-16 -3 -66 -16 -113 -29 l-85 -23 -3 -812 c-2 -792 -3
-812 -21 -812 -30 0 -51 -11 -51 -26 0 -10 -15 -14 -57 -14 -32 0 -96 -10
-143 -21 -47 -11 -96 -23 -109 -26 -13 -3 -26 -14 -28 -24 -4 -15 -15 -19 -44
-19 -22 0 -39 -4 -39 -10 0 -6 -27 -10 -62 -10 -75 1 -238 -39 -238 -57 0 -9
-16 -13 -49 -13 -75 0 -153 -21 -159 -42 -3 -15 -15 -18 -61 -18 -91 0 -173
-20 -179 -43 -5 -18 -11 -19 -91 -13 -47 3 -87 11 -89 16 -2 6 -10 10 -18 10
-8 0 -14 9 -14 20 0 15 -7 20 -25 20 -16 0 -25 6 -25 15 0 8 -9 15 -20 15 -11
0 -20 5 -20 10 0 6 -9 10 -20 10 -13 0 -20 7 -20 20 0 21 -27 40 -59 40 -13 0
-21 8 -23 23 -2 18 -10 23 -40 25 -30 3 -38 7 -38 23 0 14 -7 19 -25 19 -17 0
-25 5 -25 18 0 22 -49 52 -84 52 -19 0 -26 5 -26 20 0 15 -7 20 -25 20 -14 0
-25 5 -25 10 0 6 -7 10 -15 10 -8 0 -15 5 -15 10 0 6 -6 10 -14 10 -8 0 -16
10 -18 23 -2 17 -11 23 -35 25 -24 2 -33 8 -33 21 0 22 -40 51 -70 51 -23 0
-50 22 -50 39 0 6 -11 11 -25 11 -16 0 -25 6 -25 16 0 23 -41 53 -74 54 -16 0
-36 8 -45 18 -9 10 -24 21 -33 25 -10 3 -18 14 -18 24 -1 23 -73 73 -105 73
-14 0 -25 5 -25 10 0 6 -7 10 -15 10 -7 0 -18 6 -22 13 -4 7 -20 18 -35 24
-16 7 -28 21 -29 30 0 27 -76 83 -110 83 -19 0 -29 5 -29 15 0 8 -9 15 -20 15
-11 0 -20 5 -20 10 0 6 -7 10 -15 10 -8 0 -15 8 -15 19 0 22 -40 51 -72 51
-30 0 -45 11 -49 34 -5 24 -166 136 -196 136 -16 0 -23 6 -23 20 0 16 -7 20
-30 20 -20 0 -30 5 -30 15 0 8 -9 15 -20 15 -11 0 -20 5 -20 10 0 6 -7 10 -15
10 -8 0 -15 7 -15 15 0 8 -9 15 -20 15 -11 0 -20 7 -20 15 0 9 -9 15 -25 15
-16 0 -25 6 -25 15 0 8 -6 15 -13 15 -29 0 -67 26 -67 45 0 24 -104 95 -138
95 -14 0 -22 6 -22 18 -1 20 -72 72 -100 72 -18 0 -20 7 -20 55 0 46 3 55 18
55 36 0 92 21 92 35 0 12 15 15 69 15 76 0 101 6 101 24 0 14 150 46 219 46
43 0 51 3 51 19 0 16 11 20 80 26 44 4 80 10 80 14 0 13 90 31 153 31 74 0
107 8 107 25 0 13 31 22 108 32 23 3 42 9 42 14 0 5 34 9 75 9 60 0 75 3 75
15 0 10 11 15 35 15 19 0 35 4 35 9 0 11 89 32 162 38 38 3 58 9 58 18 0 12
62 25 126 25 19 0 34 5 34 10 0 6 28 10 64 10 72 0 96 6 96 24 0 8 38 20 103
31 56 10 104 22 107 25 7 8 159 40 193 40 15 0 27 4 27 8 0 11 83 32 125 32
19 0 35 5 35 10 0 6 22 10 49 10 35 0 51 4 55 16 5 13 19 15 74 13 80 -3 132
7 132 27 0 11 15 14 63 14 74 0 107 8 107 25 0 13 42 25 85 25 13 0 25 4 27
10 2 5 48 17 103 27 55 9 103 21 106 26 4 5 36 11 73 14 36 3 66 10 66 14 0 5
16 9 35 9 19 0 35 5 35 10 0 6 29 10 68 10 86 0 112 7 112 31 0 15 7 19 33 19
17 0 57 7 87 15 30 8 72 15 93 15 20 0 37 5 37 10 0 6 20 10 45 10 25 0 45 5
45 10 0 11 80 13 129 4 17 -4 31 -13 31 -20 0 -8 10 -14 25 -14 18 0 25 -5 25
-19 0 -22 19 -31 62 -31 29 0 58 -19 58 -39 0 -6 9 -11 20 -11 32 0 70 -22 70
-42 0 -13 8 -18 28 -18 32 0 46 -9 55 -32 4 -12 17 -18 37 -18 16 0 30 -4 30
-10 0 -5 9 -10 20 -10 13 0 20 -7 20 -20 0 -16 7 -20 30 -20 20 0 30 -5 30
-15 0 -8 10 -20 22 -26 13 -7 29 -18 36 -26 7 -7 29 -13 48 -13 26 0 34 -4 34
-18 0 -21 38 -42 75 -42 14 0 25 -4 25 -10 0 -5 9 -10 21 -10 22 0 49 -22 49
-39 0 -6 9 -11 19 -11 30 0 51 -11 51 -25 0 -19 86 -75 124 -81 42 -7 116 -46
116 -61 0 -19 41 -43 73 -43 29 0 57 -20 57 -39 0 -6 13 -11 29 -11 16 0 36
-7 45 -15 8 -8 22 -15 30 -15 9 0 16 -8 16 -20 0 -14 7 -20 23 -20 26 0 38 -8
53 -35 11 -19 30 -28 87 -40 15 -3 27 -12 27 -20 0 -8 9 -15 19 -15 31 0 51
-11 51 -29 1 -21 164 -111 202 -111 18 0 28 -5 28 -15 0 -9 9 -15 25 -15 17 0
25 -6 25 -17 0 -10 17 -27 38 -39 20 -12 74 -42 118 -67 45 -26 91 -47 102
-47 26 0 72 -20 72 -32 0 -4 9 -8 20 -8 11 0 20 -4 20 -10 0 -5 7 -10 15 -10
8 0 15 -7 15 -15 0 -8 9 -15 20 -15 11 0 20 -4 20 -10 0 -5 9 -10 20 -10 11 0
20 -4 20 -10 0 -5 8 -10 18 -10 23 -1 52 -24 52 -43 0 -18 21 -27 61 -27 l29
0 0 -67 c0 -102 -5 -113 -50 -113 -21 0 -40 -5 -42 -12 -3 -7 -39 -15 -94 -19
-124 -10 -248 -41 -252 -62 -3 -13 -14 -17 -48 -17 -24 0 -44 -4 -44 -9 0 -6
-21 -13 -47 -17 -27 -4 -51 -12 -55 -18 -4 -6 -42 -12 -85 -14 -88 -3 -153
-19 -153 -37 0 -17 -33 -25 -102 -25 -43 0 -58 -4 -58 -14 0 -15 -43 -26 -106
-26 -58 0 -134 -21 -134 -37 0 -9 -19 -13 -66 -13 -56 0 -67 -3 -71 -18 -3
-14 -21 -22 -67 -30 -35 -7 -75 -12 -90 -12 -16 0 -26 -5 -26 -15 0 -12 -14
-15 -67 -15 -37 0 -92 -7 -122 -15 -31 -8 -75 -19 -98 -25 -24 -6 -43 -17 -43
-24 0 -16 -43 -26 -106 -26 -32 0 -44 -4 -44 -15 0 -8 -9 -15 -20 -15 -18 0
-20 -7 -20 -70 l0 -70 35 0 c22 0 35 5 35 13 0 14 98 37 156 37 29 0 87 14
279 65 55 14 123 32 150 39 29 7 51 19 53 27 3 15 92 39 145 39 15 0 27 5 27
10 0 6 14 10 30 10 17 0 30 5 30 10 0 6 28 10 63 10 34 0 87 7 117 16 30 9 78
21 105 28 32 8 51 18 53 29 3 14 16 17 68 17 48 0 64 3 64 14 0 19 22 26 85
26 46 0 139 21 368 81 21 6 37 16 37 24 0 12 14 15 59 15 66 0 161 27 161 46
0 7 22 15 60 19 33 4 60 11 60 16 0 5 16 9 35 9 19 0 35 5 35 10 0 6 24 10 54
10 72 0 156 20 156 37 0 8 13 13 35 13 19 0 35 4 35 9 0 12 88 31 140 31 25 0
40 5 40 13 0 16 -78 57 -110 57 -17 0 -29 8 -35 23 -7 16 -20 23 -47 25 -25 2
-38 8 -38 18 0 8 -9 14 -19 14 -29 0 -51 11 -51 25 0 7 -49 43 -110 79 -80 48
-119 66 -145 66 -19 0 -35 5 -35 10 0 6 -7 10 -15 10 -8 0 -15 5 -15 10 0 6
-8 10 -17 10 -24 1 -53 24 -53 42 0 18 -82 58 -120 58 -18 0 -39 10 -54 25
-14 14 -34 25 -46 25 -13 0 -20 7 -20 20 0 16 -7 20 -30 20 -20 0 -30 5 -30
15 0 10 -10 15 -30 15 -22 0 -30 5 -30 18 0 22 -70 62 -110 62 -19 0 -29 6
-33 20 -4 14 -14 20 -34 20 -33 0 -47 8 -56 33 -4 11 -17 17 -37 17 -19 0 -30
5 -30 14 0 22 -40 46 -77 46 -23 0 -33 5 -33 15 0 9 -9 15 -25 15 -14 0 -25 5
-25 10 0 6 -7 10 -15 10 -8 0 -15 7 -15 15 0 10 -10 15 -30 15 -23 0 -30 4
-30 20 0 14 -7 20 -24 20 -35 0 -56 10 -56 26 0 10 -13 14 -45 14 -33 0 -45 4
-45 15 0 8 -4 15 -10 15 -5 0 -10 7 -10 15 0 8 -9 15 -19 15 -31 0 -51 11 -51
29 -1 27 -154 110 -232 126 -16 3 -28 12 -28 20 0 9 -9 15 -22 15 -28 0 -42
10 -51 33 -4 10 -17 17 -34 17 -19 0 -32 7 -38 21 -12 26 -196 129 -230 129
-15 0 -25 6 -25 14 0 21 -101 76 -139 76 -17 0 -31 5 -31 10 0 6 -7 10 -15 10
-8 0 -15 8 -15 18 0 21 -74 62 -112 62 -21 0 -28 5 -28 19 0 21 -19 31 -61 31
-16 0 -29 5 -29 10 0 6 -9 10 -20 10 -15 0 -20 7 -20 25 0 14 -6 25 -12 25 -7
0 -26 8 -43 17 -16 9 -48 19 -70 22 -31 5 -41 11 -43 27 -2 12 -17 28 -38 37
-19 10 -36 17 -37 16 -1 -1 -15 -5 -32 -10z"/>
<path d="M4790 8580 c-41 -10 -163 -39 -270 -65 -107 -25 -251 -59 -320 -76
-69 -16 -154 -36 -190 -44 -36 -8 -81 -19 -100 -25 -31 -9 -283 -69 -445 -105
-33 -8 -118 -28 -190 -45 -348 -83 -480 -114 -720 -171 -143 -34 -298 -70
-344 -80 -46 -11 -87 -22 -91 -24 -4 -2 -58 -16 -121 -30 -63 -14 -150 -34
-194 -44 -44 -11 -120 -29 -170 -40 -49 -12 -126 -30 -170 -40 -44 -11 -123
-30 -175 -42 -52 -11 -101 -24 -108 -29 -10 -5 7 -21 55 -53 37 -26 88 -61
113 -78 25 -17 88 -61 140 -97 52 -35 105 -73 118 -83 23 -18 27 -18 132 11
55 15 721 177 1090 265 85 21 256 62 380 91 124 30 252 61 285 69 104 24 451
108 853 205 293 72 487 118 518 125 27 5 32 12 38 43 8 49 8 311 0 351 -8 36
-10 36 -114 11z"/>
<path d="M5030 8376 c0 -118 4 -206 9 -206 10 0 326 -184 416 -241 43 -27 148
-90 250 -149 17 -9 85 -49 152 -89 68 -39 134 -71 148 -71 18 0 25 -5 25 -20
0 -11 5 -20 10 -20 6 0 29 -12 53 -27 110 -70 211 -123 233 -123 14 0 24 -6
24 -14 0 -20 45 -46 79 -46 22 0 30 -5 33 -21 2 -12 22 -31 50 -47 25 -15 102
-60 171 -99 69 -40 137 -73 151 -73 19 0 26 -5 26 -20 0 -26 41 -36 88 -21 21
6 75 20 122 31 106 24 268 66 298 77 l23 9 -28 14 c-30 16 -271 154 -388 223
-38 23 -79 47 -90 53 -11 6 -72 41 -136 77 -64 37 -127 67 -141 67 -16 0 -27
7 -30 18 -4 15 -123 91 -173 111 -5 2 -35 20 -65 40 -67 45 -103 61 -135 61
-17 0 -25 6 -25 18 0 21 -105 82 -141 82 -16 0 -28 8 -34 23 -7 15 -20 23 -42
25 -20 2 -33 9 -33 17 0 18 -31 35 -63 35 -16 0 -26 7 -30 19 -6 24 -107 81
-145 81 -24 0 -31 5 -34 23 -2 18 -10 23 -40 25 -29 2 -38 8 -38 21 0 10 -12
24 -27 32 -16 7 -39 22 -53 32 -14 10 -38 25 -55 31 -32 14 -237 134 -245 145
-3 3 -36 21 -74 40 -37 19 -75 41 -82 49 -12 11 -14 -17 -14 -192z"/>
<path d="M5030 6028 l0 -1973 48 -32 c26 -18 137 -93 247 -167 110 -75 407
-274 660 -443 253 -169 462 -310 465 -313 3 -3 46 -33 95 -66 50 -34 162 -110
250 -169 88 -60 241 -163 340 -229 99 -66 182 -123 185 -126 4 -4 60 -41 173
-114 l27 -18 0 165 0 165 -262 175 c-145 95 -317 209 -383 252 -301 196 -443
289 -480 316 -22 16 -255 172 -517 346 l-477 318 -1 1837 0 1838 -47 25 c-51
27 -61 32 -193 111 -47 28 -95 56 -107 63 l-23 12 0 -1973z"/>
<path d="M0 7685 c0 -43 1 -45 29 -45 l28 0 7 -147 c4 -82 16 -348 26 -593 22
-502 45 -1021 60 -1340 5 -118 17 -366 25 -550 8 -184 20 -429 25 -545 6 -115
19 -417 30 -670 11 -253 22 -494 25 -535 4 -41 12 -225 20 -408 12 -312 14
-335 33 -347 16 -12 61 -48 192 -157 14 -12 39 -33 55 -47 17 -14 51 -42 75
-61 24 -19 112 -92 197 -162 84 -70 177 -147 206 -170 30 -24 98 -79 153 -122
124 -100 417 -339 424 -346 3 -3 79 -66 170 -140 145 -118 249 -205 424 -353
27 -23 60 -51 74 -62 14 -11 82 -67 151 -125 70 -58 199 -163 286 -235 133
-108 377 -312 449 -374 18 -16 18 -3 11 497 l-8 512 55 0 55 0 7 -492 c4 -271
9 -514 12 -540 l6 -47 210 72 211 72 -7 735 c-10 1078 -25 2102 -30 2108 -5 5
-60 -10 -290 -77 -76 -22 -143 -44 -148 -49 -5 -5 -5 -171 1 -408 6 -219 14
-612 17 -871 l7 -473 -56 0 -57 0 0 48 c0 71 -19 1089 -26 1400 -5 204 -9 272
-19 272 -15 0 -175 -48 -195 -59 -12 -6 -14 -30 -12 -127 8 -334 32 -1776 32
-1886 l0 -128 -54 0 c-30 0 -56 3 -58 8 -1 4 -30 29 -63 57 -33 27 -62 52 -65
55 -3 3 -74 64 -159 135 -85 72 -222 188 -305 260 -83 71 -160 136 -170 145
-11 8 -40 34 -65 56 -25 23 -121 104 -212 180 -156 131 -492 414 -674 569 -46
39 -133 112 -194 164 -61 51 -111 97 -111 102 0 5 -6 9 -12 9 -7 0 -32 17 -54
38 -23 20 -84 73 -135 117 -52 44 -106 90 -120 103 -31 27 -30 17 -54 772 -8
256 -19 560 -25 675 -6 116 -17 417 -25 670 -8 253 -20 555 -25 670 -6 116
-17 426 -25 690 -8 264 -20 562 -26 662 -6 101 -9 190 -5 198 4 11 20 15 55
15 47 0 58 -6 158 -77 59 -42 196 -137 303 -211 107 -74 224 -156 260 -180
102 -71 276 -192 349 -243 293 -201 406 -282 409 -290 2 -5 8 -9 14 -9 5 0 68
-42 139 -92 71 -51 172 -122 223 -158 221 -154 616 -431 617 -433 1 -1 7 -213
14 -472 16 -563 34 -1068 39 -1072 2 -2 132 31 204 53 15 4 15 -38 -3 719 -24
966 -28 1055 -52 1074 -33 26 -61 46 -233 162 -91 61 -166 116 -168 120 -2 5
-8 9 -13 9 -11 0 -128 77 -405 267 -111 76 -314 214 -450 307 -137 93 -298
203 -359 245 -60 41 -220 149 -355 240 -135 90 -246 168 -248 173 -2 4 -8 8
-14 8 -6 0 -31 15 -57 34 -25 18 -129 89 -231 158 -102 69 -256 173 -342 231
l-158 107 0 -45z"/>
<path d="M8265 6990 c-77 -21 -221 -59 -320 -85 -99 -25 -220 -57 -270 -70
-49 -13 -175 -46 -280 -73 -153 -40 -1238 -325 -1415 -372 -143 -38 -245 -64
-320 -81 -47 -12 -100 -27 -117 -35 l-33 -15 0 -235 0 -234 28 6 c36 9 108 28
212 58 47 13 153 43 235 66 83 23 251 70 375 105 124 35 277 78 340 95 63 17
144 40 180 50 36 10 126 35 200 55 74 20 155 43 180 50 25 8 72 21 105 30 59
16 162 44 300 83 39 11 124 35 190 55 140 41 217 63 300 83 33 8 89 23 125 34
36 10 84 24 108 30 l42 11 0 214 c0 166 -3 215 -12 214 -7 -1 -76 -19 -153
-39z"/>
<path d="M433 6688 c4 -90 13 -354 22 -588 8 -234 19 -528 25 -655 6 -126 17
-435 25 -685 8 -250 19 -545 25 -655 5 -110 17 -433 27 -718 15 -461 18 -517
32 -512 25 10 291 92 339 105 l42 11 0 77 c0 42 -7 273 -15 512 -8 239 -21
671 -29 960 -9 289 -20 638 -26 775 -5 138 -14 414 -20 615 -18 643 -16 622
-42 642 -50 39 -397 278 -404 278 -4 0 -4 -73 -1 -162z"/>
<path d="M8335 6439 c-38 -11 -101 -28 -140 -39 -38 -10 -101 -27 -140 -37
l-70 -19 -6 -135 c-4 -74 -7 -236 -8 -361 l-1 -228 -57 0 -56 0 6 344 6 344
-47 -13 c-81 -23 -130 -40 -137 -47 -4 -3 -13 -543 -20 -1200 -8 -656 -19
-1440 -25 -1743 -14 -736 -13 -998 2 -1013 7 -7 25 -12 40 -12 18 0 28 -5 28
-14 0 -15 58 -62 66 -54 8 9 23 572 39 1463 8 495 20 1024 25 1175 6 151 10
366 10 478 l0 202 55 0 55 0 0 -162 c0 -200 -44 -2635 -56 -3105 -6 -227 -7
-243 -25 -243 -10 0 -48 -11 -86 -24 -60 -22 -338 -112 -703 -228 -69 -22
-156 -50 -195 -63 -38 -13 -164 -53 -280 -90 -115 -37 -224 -73 -242 -81 -17
-8 -35 -14 -41 -14 -5 0 -43 -11 -83 -24 -41 -13 -249 -81 -464 -151 -214 -69
-408 -132 -430 -140 -22 -7 -182 -59 -355 -115 -173 -56 -373 -121 -445 -145
-71 -23 -182 -59 -245 -79 -63 -21 -124 -41 -135 -46 -11 -4 -94 -32 -184 -61
l-164 -52 7 -126 c3 -69 6 -170 6 -223 l0 -97 43 14 c317 102 603 193 737 235
91 29 210 67 265 85 55 18 161 51 235 75 279 88 351 110 580 183 129 42 316
101 415 133 99 31 232 74 295 95 105 34 275 89 725 231 88 28 212 67 275 88
63 20 169 54 235 74 66 21 138 43 160 51 58 19 183 58 320 100 200 61 189 54
197 116 4 30 14 428 23 884 8 457 20 979 25 1160 5 182 17 668 25 1080 8 413
20 887 25 1055 14 420 13 540 -2 539 -7 0 -44 -9 -83 -20z"/>
<path d="M4855 3900 c-16 -4 -82 -22 -145 -40 -125 -34 -196 -54 -365 -99 -60
-16 -144 -39 -185 -51 -41 -11 -106 -29 -145 -40 -38 -10 -122 -33 -185 -50
-63 -18 -146 -40 -185 -50 -38 -10 -113 -31 -165 -45 -102 -29 -171 -48 -320
-88 -100 -27 -274 -74 -400 -108 -41 -12 -91 -25 -110 -29 -19 -5 -93 -25
-165 -45 -71 -20 -188 -52 -260 -70 -71 -18 -195 -51 -275 -73 -80 -22 -248
-68 -375 -102 -126 -34 -243 -65 -260 -71 -16 -5 -49 -14 -73 -19 l-43 -11 65
-52 c35 -29 99 -79 141 -112 42 -33 98 -77 123 -97 26 -21 52 -38 58 -38 6 0
74 18 150 41 76 22 162 47 189 54 28 8 88 26 135 40 105 33 303 91 390 115 36
10 90 26 120 35 30 9 69 20 85 25 17 4 68 19 115 33 47 14 141 42 210 61 149
43 199 58 305 90 44 13 132 38 195 56 63 17 145 40 183 51 311 89 422 121 452
129 17 4 71 19 120 34 50 15 113 33 140 41 28 8 127 36 220 64 94 27 200 57
236 67 65 17 67 19 73 53 13 82 4 313 -13 310 -3 -1 -19 -5 -36 -9z"/>
<path d="M5030 3710 l0 -150 28 -18 c15 -9 61 -42 102 -73 41 -30 138 -100
215 -155 150 -106 473 -338 490 -352 6 -4 129 -94 275 -200 146 -106 294 -215
330 -242 36 -27 167 -124 292 -215 l228 -165 92 29 c51 16 146 46 210 66 l118
36 -353 236 c-288 194 -649 438 -785 532 -15 10 -290 193 -612 407 -322 214
-591 395 -598 402 -7 6 -18 12 -23 12 -5 0 -9 -64 -9 -150z"/>
<path d="M935 2835 c-22 -7 -88 -28 -147 -46 -60 -18 -108 -36 -108 -39 0 -3
37 -37 83 -75 45 -38 98 -84 117 -102 19 -18 64 -56 100 -85 36 -29 144 -120
241 -203 160 -137 394 -335 444 -377 221 -185 431 -362 442 -374 8 -8 133
-115 277 -237 143 -122 272 -232 286 -243 108 -93 155 -132 158 -130 1 2 0
114 -4 250 l-7 247 -80 62 c-43 34 -127 99 -185 145 -59 46 -167 132 -241 190
-74 59 -158 125 -187 147 -29 22 -68 54 -86 70 -18 17 -168 138 -333 270 -165
131 -386 308 -492 392 -129 103 -199 153 -215 152 -12 0 -41 -7 -63 -14z"/>
<path d="M7445 2141 c-49 -16 -137 -43 -195 -61 -58 -17 -123 -38 -145 -45
-22 -8 -101 -32 -175 -54 -424 -126 -520 -158 -520 -177 0 -10 -14 -14 -46
-14 -43 0 -109 -15 -199 -45 -22 -7 -78 -25 -125 -38 -114 -34 -316 -96 -365
-112 -42 -14 -128 -40 -330 -101 -146 -44 -383 -116 -485 -148 -110 -35 -196
-61 -277 -87 -40 -12 -73 -27 -73 -34 0 -15 -32 -25 -83 -25 -20 0 -86 -15
-145 -34 -102 -33 -207 -65 -374 -117 l-78 -24 0 -82 c0 -61 3 -83 13 -83 7 0
56 14 110 30 65 21 97 36 97 45 0 11 12 15 44 15 54 0 76 8 76 26 0 10 13 14
47 14 55 0 113 19 113 37 0 9 14 13 43 13 23 0 87 15 142 34 55 18 161 52 235
75 74 24 144 46 155 51 11 5 30 12 43 15 12 4 22 13 22 21 0 10 12 14 43 14
42 0 144 31 582 175 105 34 278 90 385 125 107 34 303 98 435 141 131 44 256
84 277 90 22 5 38 16 38 24 0 11 12 15 45 15 26 0 96 17 163 39 64 21 160 52
212 69 334 107 510 166 510 171 0 10 -95 71 -110 71 -8 -1 -55 -14 -105 -29z"/>
</g>
</svg>
